HIERARCHY
ROOT joint_0
{
	OFFSET 0.000000 0.000000 0.000000
	CHANNELS 6 Xposition Yposition Zposition Zrotation Yrotation Xrotation 
	JOINT joint_1
	{
		OFFSET 0.511002 1.944000 108.288940
		CHANNELS 3 Zrotation Yrotation Xrotation
		JOINT joint_2
		{
			OFFSET -9.074005 1.512993 98.440063
			CHANNELS 3 Zrotation Yrotation Xrotation
			JOINT joint_3
			{
				OFFSET -8.590996 1.815002 98.366943
				CHANNELS 3 Zrotation Yrotation Xrotation
				JOINT joint_4
				{
					OFFSET 2.489998 3.531998 136.462036
					CHANNELS 3 Zrotation Yrotation Xrotation
					JOINT joint_5
					{
						OFFSET 22.708000 2.955002 80.357056
						CHANNELS 3 Zrotation Yrotation Xrotation
						End Site
						{
							OFFSET 0.000000 0.000000 0.000000
						}
					}
				}
				JOINT joint_6
				{
					OFFSET 2.860001 -27.684998 77.234009
					CHANNELS 3 Zrotation Yrotation Xrotation
					JOINT joint_7
					{
						OFFSET 5.449997 -131.244003 -18.851929
						CHANNELS 3 Zrotation Yrotation Xrotation
						JOINT joint_8
						{
							OFFSET 35.757000 -24.661995 -264.074097
							CHANNELS 3 Zrotation Yrotation Xrotation
							JOINT joint_9
							{
								OFFSET 49.392001 -1.747002 -239.960938
								CHANNELS 3 Zrotation Yrotation Xrotation
								End Site
								{
									OFFSET 0.000000 0.000000 0.000000
								}
							}
						}
					}
				}
				JOINT joint_10
				{
					OFFSET -0.127998 31.625000 75.753052
					CHANNELS 3 Zrotation Yrotation Xrotation
					JOINT joint_11
					{
						OFFSET -5.618004 131.132996 -19.557007
						CHANNELS 3 Zrotation Yrotation Xrotation
						JOINT joint_12
						{
							OFFSET 46.488998 30.127991 -261.826050
							CHANNELS 3 Zrotation Yrotation Xrotation
							JOINT joint_13
							{
								OFFSET 66.021003 0.474030 -235.934937
								CHANNELS 3 Zrotation Yrotation Xrotation
								End Site
								{
									OFFSET 0.000000 0.000000 0.000000
								}
							}
						}
					}
				}
			}
		}
	}
	JOINT joint_14
	{
		OFFSET 15.887001 -78.871004 -94.561035
		CHANNELS 3 Zrotation Yrotation Xrotation
		JOINT joint_15
		{
			OFFSET -4.133003 6.714001 -473.615967
			CHANNELS 3 Zrotation Yrotation Xrotation
			JOINT joint_16
			{
				OFFSET -19.541000 5.340000 -399.613007
				CHANNELS 3 Zrotation Yrotation Xrotation
				JOINT joint_17
				{
					OFFSET 164.317001 41.657999 -73.195000
					CHANNELS 3 Zrotation Yrotation Xrotation
					End Site
					{
						OFFSET 0.000000 0.000000 0.000000
					}
				}
			}
		}
	}
	JOINT joint_18
	{
		OFFSET 6.513000 77.960991 -96.406982
		CHANNELS 3 Zrotation Yrotation Xrotation
		JOINT joint_19
		{
			OFFSET -10.660004 -8.518997 -473.485016
			CHANNELS 3 Zrotation Yrotation Xrotation
			JOINT joint_20
			{
				OFFSET -36.967995 -11.098999 -398.260010
				CHANNELS 3 Zrotation Yrotation Xrotation
				JOINT joint_21
				{
					OFFSET 166.067997 30.363998 -74.785000
					CHANNELS 3 Zrotation Yrotation Xrotation
					End Site
					{
						OFFSET 0.000000 0.000000 0.000000
					}
				}
			}
		}
	}
}
MOTION
Frames: 17
Frame Time: 0.016667
304.687010 81.244000 1068.358030 4.250019 5.888966 2.587733 -1.096183 11.567045 2.517407 -1.549528 -1.820827 0.089170 -1.628767 2.135850 0.679230 1.394127 -7.770549 -3.446481 0.000000 0.000000 0.000000 -0.353825 3.350928 -2.504733 -2.246688 3.528343 -5.217854 0.076549 -14.273409 0.270992 0.000000 0.000000 0.000000 -3.330697 0.343540 0.186156 3.358741 1.644924 5.899192 -0.563030 -16.733617 -3.200943 0.000000 0.000000 0.000000 -4.331464 -29.919892 -4.638535 -3.060867 7.157929 -1.096029 -3.326253 -6.901230 0.496239 0.000000 0.000000 0.000000 -3.942689 2.290502 2.765689 -4.049790 21.160861 -3.862984 -4.106016 18.278317 -5.117490 0.000000 0.000000 0.000000 
327.879000 77.744000 1060.004030 4.959464 4.765035 2.629545 -1.389803 11.539224 2.963702 -1.392279 -1.747935 -0.030580 -1.402876 2.092138 0.720716 1.383055 -6.711431 -3.585794 0.000000 0.000000 0.000000 -0.463172 3.722639 -2.982733 -2.278162 3.922111 -5.231764 0.072221 -14.075771 0.425344 0.000000 0.000000 0.000000 -2.986925 0.047695 0.108983 3.306585 1.264815 5.799585 -0.716530 -17.868239 -3.604230 0.000000 0.000000 0.000000 -4.450995 -28.662914 -4.697353 -3.624636 7.547656 -1.402807 -3.980333 -8.253000 0.592209 0.000000 0.000000 0.000000 -4.349886 2.668412 3.141007 -4.407208 24.836263 -4.287053 -4.467632 19.679657 -5.582207 0.000000 0.000000 0.000000 
351.074010 73.705000 1050.510990 5.381878 3.563539 2.550829 -1.618439 11.611374 3.435428 -1.080214 -1.671238 -0.204750 -1.003540 2.097092 0.761773 1.356178 -5.781715 -3.652272 0.000000 0.000000 0.000000 -0.384647 3.999303 -3.205568 -2.344800 4.223651 -5.442829 0.037475 -13.602624 0.453767 0.000000 0.000000 0.000000 -2.591471 -0.210884 -0.032159 3.256218 0.912655 5.719404 -0.895449 -19.124032 -4.021851 0.000000 0.000000 0.000000 -4.424368 -27.714112 -4.417901 -4.064760 9.410915 -1.944351 -4.557082 -8.921325 0.533920 0.000000 0.000000 0.000000 -4.848036 3.005908 3.721380 -4.795166 28.921322 -5.118124 -4.990970 20.729045 -6.068968 0.000000 0.000000 0.000000 
374.603000 68.649000 1039.567990 5.683984 2.151904 2.428778 -1.872669 11.966118 3.837352 -0.635230 -1.716271 -0.408660 -0.450204 2.221967 0.812204 1.321137 -5.073700 -3.665434 0.000000 0.000000 0.000000 0.039145 4.245633 -2.937092 -2.503322 4.499511 -6.096613 -0.015152 -13.026092 0.435053 0.000000 0.000000 0.000000 -2.071508 -0.430045 -0.314566 3.247626 0.590386 5.848802 -1.154643 -20.748080 -4.624603 0.000000 0.000000 0.000000 -4.191334 -26.954448 -3.842659 -4.293783 12.581152 -2.772023 -4.945222 -7.152558 -0.078532 0.000000 0.000000 0.000000 -5.662852 3.537498 4.517162 -5.405218 33.421946 -6.632072 -6.104159 21.385963 -6.715449 0.000000 0.000000 0.000000 
398.133000 63.054000 1027.488040 5.979651 0.597217 2.240509 -2.198285 12.533848 4.226622 -0.107829 -1.813822 -0.631098 0.213570 2.387337 0.872247 1.275957 -4.487347 -3.626413 0.000000 0.000000 0.000000 0.644662 4.399961 -2.372886 -2.688340 4.689563 -7.024624 -0.069912 -12.168278 0.344121 0.000000 0.000000 0.000000 -1.484061 -0.603902 -0.626496 3.210521 0.291732 5.987263 -1.474626 -22.506537 -5.279588 0.000000 0.000000 0.000000 -3.995224 -26.370287 -3.034833 -4.522674 16.920457 -3.694205 -5.394181 -3.898708 -1.080152 0.000000 0.000000 0.000000 -6.695354 4.136650 5.464890 -6.130491 38.183632 -8.561559 -7.686057 21.994112 -7.517864 0.000000 0.000000 0.000000 
420.138000 58.111000 1015.862980 6.083260 -0.724416 1.906352 -2.489865 13.151489 4.650550 0.460147 -1.838078 -0.815343 0.920934 2.496431 0.918082 1.224234 -3.978264 -3.538173 0.000000 0.000000 0.000000 1.092935 4.148195 -1.837852 -2.728449 4.456105 -7.816145 -0.161547 -10.423912 -0.194372 0.000000 0.000000 0.000000 -1.102305 -0.696755 -0.746090 3.069072 0.073739 5.633106 -1.664868 -23.745572 -5.374756 0.000000 0.000000 0.000000 -3.963475 -26.277290 -2.162052 -4.804433 21.750501 -4.345075 -6.030136 -2.158798 -1.750324 0.000000 0.000000 0.000000 -7.491147 4.118732 6.520388 -6.600200 43.197188 -10.365645 -8.904101 22.465954 -8.100410 0.000000 0.000000 0.000000 
439.648990 54.390000 1004.635990 5.694714 -1.621460 1.281420 -2.629480 13.840613 5.294728 1.135825 -1.750389 -0.991775 1.735173 2.563491 0.914856 1.186286 -3.572633 -3.460661 0.000000 0.000000 0.000000 1.179744 3.194273 -1.321489 -2.510071 3.450320 -8.545885 -0.320079 -7.055580 -1.321824 0.000000 0.000000 0.000000 -1.098706 -0.655804 -0.547719 2.839756 0.007044 4.361779 -1.548952 -24.525047 -4.365184 0.000000 0.000000 0.000000 -4.050689 -27.224311 -1.178666 -5.054231 27.854093 -4.586934 -6.946734 -3.874258 -1.626164 0.000000 0.000000 0.000000 -7.871909 3.061305 7.865807 -6.686792 48.876407 -11.966174 -9.256576 22.825185 -8.152271 0.000000 0.000000 0.000000 
457.635010 51.321000 993.864990 5.264191 -2.352102 0.543481 -2.744486 14.698050 5.963157 1.803373 -1.685832 -1.110405 2.520830 2.631673 0.892365 1.154396 -3.263291 -3.384762 0.000000 0.000000 0.000000 1.105802 1.805525 -0.648282 -2.185047 1.960572 -9.392011 -0.602824 -2.695121 -2.866876 0.000000 0.000000 0.000000 -1.309865 -0.537805 -0.229530 2.564312 0.033887 2.674694 -1.268595 -24.908983 -2.783709 0.000000 0.000000 0.000000 -4.230945 -28.520626 -0.251819 -5.267461 34.522944 -4.552878 -8.114019 -6.931553 -1.222377 0.000000 0.000000 0.000000 -8.255767 1.431033 9.349697 -6.816887 54.829585 -13.534865 -9.319291 23.051870 -7.416800 0.000000 0.000000 0.000000 
475.471980 48.377000 985.314030 5.233412 -3.067341 -0.073622 -2.985829 15.463083 6.470897 2.326530 -1.681434 -1.199126 3.134741 2.689863 0.903755 1.092361 -2.981544 -3.213365 0.000000 0.000000 0.000000 1.151808 0.494868 0.002574 -1.967533 0.592360 -9.993195 -1.071495 1.227587 -4.809338 0.000000 0.000000 0.000000 -1.506156 -0.465365 -0.014501 2.255742 0.035864 1.393182 -1.049902 -24.268696 -1.592398 0.000000 0.000000 0.000000 -4.422457 -28.988838 0.466153 -5.519545 39.568776 -4.525804 -9.267795 -9.473882 -0.936546 0.000000 0.000000 0.000000 -8.790337 -0.303076 10.643395 -7.200342 60.182277 -14.939736 -9.816827 22.529336 -5.322514 0.000000 0.000000 0.000000 
493.877990 45.158000 979.666990 5.677013 -3.755712 -0.543062 -3.507191 15.916822 6.867319 2.721138 -1.702277 -1.375176 3.643708 2.760433 0.976089 0.971289 -2.706970 -2.852369 0.000000 0.000000 0.000000 1.489273 -0.612217 0.531633 -1.937654 -0.470803 -10.002207 -1.871513 4.496664 -7.742703 0.000000 0.000000 0.000000 -1.629142 -0.540751 0.016971 1.913889 -0.077336 0.861457 -0.942794 -21.937052 -1.163987 0.000000 0.000000 0.000000 -4.596954 -28.255965 1.091234 -5.922416 42.294159 -4.788959 -10.302080 -11.544347 -0.755959 0.000000 0.000000 0.000000 -9.272344 -2.197846 11.714745 -7.673685 64.994384 -15.854920 -11.096155 20.587676 -1.561497 0.000000 0.000000 0.000000 
512.135990 42.064000 976.239990 6.307453 -4.345191 -0.989045 -4.160315 16.163724 7.261773 3.054083 -1.723883 -1.612412 4.115255 2.830076 1.068025 0.824614 -2.465224 -2.403899 0.000000 0.000000 0.000000 1.950873 -1.675563 1.051261 -2.083364 -1.435467 -9.780010 -2.894864 7.310284 -11.173280 0.000000 0.000000 0.000000 -1.739146 -0.685532 -0.075168 1.565968 -0.237018 0.738597 -0.850280 -18.478351 -1.082290 0.000000 0.000000 0.000000 -4.798265 -26.934250 1.743632 -6.390947 43.746003 -5.206107 -11.227422 -13.708551 -0.535263 0.000000 0.000000 0.000000 -9.446442 -4.437416 12.645454 -8.029763 69.430136 -16.073125 -12.815291 17.910617 3.302329 0.000000 0.000000 0.000000 
529.471980 39.773000 974.745000 6.782552 -4.799242 -1.430421 -4.623121 16.262710 7.629252 3.361446 -1.722665 -1.798223 4.532977 2.850373 1.135935 0.697540 -2.250293 -2.016018 0.000000 0.000000 0.000000 2.281670 -2.566021 1.398220 -2.247354 -2.244279 -9.681463 -3.620559 8.915565 -13.430854 0.000000 0.000000 0.000000 -1.798856 -0.731693 -0.200604 1.265278 -0.300366 0.714547 -0.770157 -15.117423 -1.120068 0.000000 0.000000 0.000000 -4.983643 -25.555448 2.384481 -6.725602 44.602717 -5.525164 -11.882056 -15.365227 -0.355837 0.000000 0.000000 0.000000 -9.163209 -6.861655 13.322417 -8.128756 72.972505 -15.629836 -13.966138 15.288839 7.317432 0.000000 0.000000 0.000000 
545.372010 38.670000 975.205990 6.937499 -5.036896 -1.885560 -4.744433 16.121358 7.992538 3.657100 -1.661655 -1.886579 4.878443 2.781597 1.162407 0.605356 -2.039684 -1.739527 0.000000 0.000000 0.000000 2.381517 -3.207342 1.334950 -2.240002 -2.856298 -9.666892 -3.736110 9.019175 -13.729709 0.000000 0.000000 0.000000 -1.752453 -0.614385 -0.308780 1.016535 -0.213900 0.708394 -0.725859 -12.174290 -1.286427 0.000000 0.000000 0.000000 -5.080292 -24.408342 2.990993 -6.846341 45.118295 -5.629226 -12.185317 -16.326874 -0.230284 0.000000 0.000000 0.000000 -8.410283 -9.490558 13.702995 -7.938933 75.453814 -14.732205 -13.673317 12.442560 8.961242 0.000000 0.000000 0.000000 
560.349980 38.370000 977.599980 6.918054 -5.132915 -2.333140 -4.661610 15.800403 8.354510 3.925878 -1.564751 -1.943314 5.168735 2.666440 1.165614 0.526334 -1.852177 -1.500174 0.000000 0.000000 0.000000 2.369118 -3.641919 0.991027 -2.115698 -3.288414 -9.620998 -3.454974 7.975031 -12.840100 0.000000 0.000000 0.000000 -1.650358 -0.400870 -0.434349 0.796258 -0.030984 0.800562 -0.707666 -9.306828 -1.564649 0.000000 0.000000 0.000000 -5.115780 -23.235429 3.569566 -6.839495 45.078656 -5.655328 -12.210600 -16.880211 -0.119913 0.000000 0.000000 0.000000 -7.355110 -12.254900 13.797808 -7.581406 76.946139 -13.598599 -12.060180 9.012633 8.133209 0.000000 0.000000 0.000000 
575.172970 38.395000 981.565980 6.823133 -5.277187 -2.705688 -4.472031 15.558875 8.623058 4.171824 -1.482608 -2.012754 5.432644 2.579764 1.153451 0.442918 -1.740964 -1.231199 0.000000 0.000000 0.000000 2.311041 -3.894080 0.637158 -1.981648 -3.548666 -9.622253 -2.984536 6.037314 -11.424948 0.000000 0.000000 0.000000 -1.596706 -0.104579 -0.536385 0.614799 0.245495 0.853540 -0.662274 -6.788836 -1.699364 0.000000 0.000000 0.000000 -5.137834 -21.747565 4.064338 -6.746440 44.439855 -5.698359 -12.024499 -17.097949 -0.031134 0.000000 0.000000 0.000000 -6.267547 -14.790765 13.642749 -7.198071 77.353663 -12.580601 -9.853819 5.580156 5.707062 0.000000 0.000000 0.000000 
590.156010 38.499000 987.343020 6.748458 -5.589061 -2.927313 -4.187617 15.554113 8.660144 4.392610 -1.446435 -2.082667 5.657766 2.570061 1.133045 0.343152 -1.756578 -0.883898 0.000000 0.000000 0.000000 2.209058 -3.908119 0.412082 -1.912488 -3.575907 -9.765999 -2.354625 2.877212 -9.557690 0.000000 0.000000 0.000000 -1.671849 0.268057 -0.587724 0.474674 0.619243 0.823012 -0.567825 -4.705779 -1.596504 0.000000 0.000000 0.000000 -5.172163 -19.700470 4.371894 -6.582099 43.016850 -5.784948 -11.616444 -16.955606 0.032192 0.000000 0.000000 0.000000 -5.285528 -16.867464 13.207032 -6.873232 76.474676 -11.907605 -7.701010 2.794440 2.743012 0.000000 0.000000 0.000000 
604.984990 38.928000 994.692020 6.666728 -5.955296 -3.034942 -3.782796 15.631985 8.531389 4.564776 -1.437851 -2.120521 5.802318 2.596180 1.107480 0.244175 -1.852187 -0.526449 0.000000 0.000000 0.000000 2.064928 -3.760835 0.275607 -1.965931 -3.441351 -10.049665 -1.644299 -1.279434 -7.242180 0.000000 0.000000 0.000000 -1.806397 0.722051 -0.635992 0.365045 1.089766 0.785306 -0.451706 -2.975461 -1.361396 0.000000 0.000000 0.000000 -5.195561 -17.318638 4.502674 -6.346726 40.941761 -5.845119 -11.005106 -16.425603 0.064787 0.000000 0.000000 0.000000 -4.414614 -18.564887 12.539696 -6.588971 74.379982 -11.507305 -6.042801 0.854825 0.565011 0.000000 0.000000 0.000000 
